Coordinates
version=1
nRows=16
nColumns=36
inDegrees=yes

Units are S.I. units (second, meters, Newtons, ...)
If the header above contains a line with 'inDegrees', this indicates whether rotational values are in degrees (yes) or radians (no).

endheader
time	pelvis_tilt	pelvis_list	pelvis_rotation	pelvis_tx	pelvis_ty	pelvis_tz	hip_flexion_r	hip_adduction_r	hip_rotation_r	knee_angle_r	knee_angle_r_beta	ankle_angle_r	subtalar_angle_r	mtp_angle_r	hip_flexion_l	hip_adduction_l	hip_rotation_l	knee_angle_l	knee_angle_l_beta	ankle_angle_l	subtalar_angle_l	mtp_angle_l	lumbar_extension	lumbar_bending	lumbar_rotation	arm_flex_r	arm_add_r	arm_rot_r	elbow_flex_r	pro_sup_r	arm_flex_l	arm_add_l	arm_rot_l	elbow_flex_l	pro_sup_l
      1.61000000	    -20.30770484	     -2.73743594	     -2.20072713	     -0.22942892	      0.73329423	     -0.59534657	     70.04369169	     -3.49484948	     -1.37757098	     84.61770049	      1.47685748	     34.49081165	     -1.89640794	     -7.49854066	     71.82294749	     -4.80054900	      8.29418703	     87.73164399	      1.53120605	     26.96172207	    -13.26564546	     -7.49854066	    -27.73518079	     -2.02933023	     -1.26153308	     34.69695516	    -16.21805864	     -5.91780394	    132.37429304	      4.57750259	     56.82308404	    -25.41086400	     18.64855081	    122.02992815	    112.82163803
      1.62000000	    -20.20175072	     -2.70916768	     -2.46542736	     -0.22559599	      0.74117515	     -0.59514932	     68.80501086	     -3.30695703	     -1.49744761	     83.10465621	      1.45044987	     34.13440163	     -1.72862229	     -7.49855175	     70.44125488	     -4.99003424	      8.12838446	     86.30418793	      1.50629224	     26.83949296	    -13.28994321	     -7.49855175	    -26.97028585	     -2.01322440	     -1.12009699	     33.81220105	    -17.09157900	     -6.34924087	    133.87722184	      4.76899798	     55.72232250	    -26.58924692	     19.09074596	    123.64106315	    113.11229583
      1.63000000	    -20.04099517	     -2.66746782	     -2.68888021	     -0.22166343	      0.74978182	     -0.59512581	     67.45056218	     -3.13465880	     -1.53381140	     81.49801720	      1.42240873	     33.59601644	     -1.61243072	     -7.49856264	     68.92919854	     -5.16717328	      7.86191188	     84.69755137	      1.47825114	     26.61137307	    -13.38874010	     -7.49856264	    -26.10732200	     -1.97343196	     -1.05173429	     32.83430677	    -18.21693968	     -6.82557837	    135.50145667	      4.89242285	     54.57497539	    -28.00399188	     19.68665916	    125.34325856	    113.38557271
      1.64000000	    -19.81296878	     -2.61360629	     -2.84215051	     -0.21763322	      0.75922089	     -0.59550405	     65.95364279	     -3.12331494	     -1.66205107	     79.73407510	      1.39162214	     32.78009799	     -1.57423729	     -7.49857808	     67.24105847	     -5.18855978	      7.63925941	     82.89405586	      1.44677421	     26.17337743	    -13.69601678	     -7.49857808	    -25.26724411	     -1.86590011	     -1.03084910	     31.86293477	    -19.58868119	     -7.44822366	    137.42211647	      4.96906792	     53.44238504	    -29.72362315	     20.49665513	    127.43111854	    113.60767913
      1.65000000	    -19.50942421	     -2.56711994	     -2.93756648	     -0.21329957	      0.76959473	     -0.59605082	     64.24987782	     -3.18335100	     -1.86049546	     77.75046311	      1.35700158	     31.55568433	     -1.98674794	     -7.49862499	     65.35431652	     -5.12405245	      7.45328216	     80.82032884	      1.41058084	     24.97612049	    -14.79621527	     -7.49862499	    -24.33217899	     -1.74961878	     -1.02966755	     30.70313723	    -21.11364084	     -8.09403108	    139.31164154	      4.98582482	     52.15780440	    -31.38657604	     21.37675100	    129.65861782	    113.48286519
      1.66000000	    -19.17609351	     -2.52627006	     -3.12860630	     -0.20863483	      0.78077745	     -0.59630666	     62.41460616	     -3.20207041	     -2.09628645	     75.59154542	      1.31932135	     30.59348659	     -1.67977724	     -7.49864263	     63.31982510	     -5.21418781	      7.22163927	     78.61874897	      1.37215602	     24.38105357	    -14.90033477	     -7.49864263	    -23.32920513	     -1.66009357	     -0.96083560	     29.46175169	    -22.77205507	     -8.61269897	    141.38663296	      5.08109504	     50.59767247	    -33.17300260	     21.85659806	    132.21968301	    113.62199364
      1.67000000	    -18.79756000	     -2.43263751	     -3.37221426	     -0.20374556	      0.79295607	     -0.59650607	     60.43436998	     -3.22914659	     -2.32873520	     73.20163426	      1.27760954	     29.48611850	     -1.36902614	     -7.49865467	     61.12550379	     -5.39521063	      6.76864940	     76.16335941	      1.32930139	     23.59767030	    -14.93002218	     -7.49865467	    -22.20084366	     -1.65578273	     -0.90424372	     28.15789051	    -24.54622906	     -9.17775506	    143.31676862	      5.17445749	     48.90235014	    -34.94572177	     22.20906598	    134.67568422	    113.78634030
      1.68000000	    -18.39194981	     -2.33926915	     -3.63304849	     -0.19864071	      0.80618256	     -0.59664121	     58.27095839	     -3.22913331	     -2.54414578	     70.52017755	      1.23080929	     28.12308036	     -1.05072319	     -7.49866564	     58.79760286	     -5.59281862	      6.32340186	     73.48679124	      1.28258646	     22.49472341	    -14.88500671	     -7.49866564	    -21.00474135	     -1.66793406	     -0.80142482	     26.73886372	    -26.40962807	     -9.94143382	    145.15652446	      5.27498221	     47.01120162	    -36.78838098	     22.38088729	    137.03135883	    113.92858976
      1.69000000	    -18.08449177	     -2.28223263	     -4.03639072	     -0.19345414	      0.82018092	     -0.59619650	     56.10360552	     -3.03439489	     -2.76426526	     67.53219395	      1.17865914	     26.56340701	     -0.71898684	     -7.49867502	     56.50933216	     -6.06186059	      5.69505985	     70.62022765	      1.23255549	     21.14652299	    -14.65785963	     -7.49867502	    -19.62033572	     -1.73224477	     -0.55277701	     25.07773414	    -28.34719411	    -10.72873496	    146.88412377	      5.38154244	     44.96790258	    -38.63571097	     22.43451652	    139.23616887	    114.06409118
      1.70000000	    -17.79357609	     -2.25551814	     -4.57741164	     -0.18809451	      0.83512321	     -0.59522358	     53.83086831	     -2.69584336	     -2.96675833	     64.20377896	      1.12056734	     24.44582287	     -0.47333927	     -7.49868750	     54.13168396	     -6.81547134	      4.73992182	     67.51188486	      1.17830467	     19.32821877	    -14.34377739	     -7.49868750	    -18.19734725	     -1.82683885	     -0.09554794	     23.28507306	    -30.30372062	    -11.48444502	    148.35039703	      5.62952722	     42.74891762	    -40.45320997	     22.22726540	    141.39433058	    114.05024396
      1.71000000	    -17.52855581	     -2.20789890	     -5.03058448	     -0.18267877	      0.85126388	     -0.59464008	     51.40640733	     -2.42468065	     -3.19572945	     60.41593142	      1.05445692	     20.70729362	     -1.87211447	     -7.49881265	     51.62995348	     -7.35818565	      3.77116229	     63.90237194	      1.11530679	     15.57241502	    -15.81466075	     -7.49881265	    -16.74485794	     -1.63801827	     -0.80966153	     23.23816488	    -31.72811159	    -10.10227764	    148.82651131	      5.96681413	     37.97852045	    -43.05530462	     19.20047511	    144.12835502	    113.66178834
      1.72000000	    -17.23307509	     -2.11561954	     -5.37899288	     -0.17685278	      0.86857962	     -0.59457019	     48.74924296	     -2.36256375	     -3.50681954	     56.30354311	      0.98268221	     17.46076114	     -1.99722552	     -7.49889104	     48.89894394	     -7.79080638	      2.67596856	     59.93716875	      1.04610094	     12.68326915	    -15.69432120	     -7.49889104	    -15.26600862	     -1.46304764	     -1.49978733	     22.84089364	    -33.12564180	     -8.87941981	    149.12849950	      6.33731753	     32.67127323	    -45.21772203	     16.35815628	    146.28951759	    113.62063405
      1.73000000	    -16.96861291	     -2.02379542	     -5.71881947	     -0.17086621	      0.88699290	     -0.59450859	     45.92845778	     -2.29872172	     -3.80288771	     51.75665021	      0.90332396	     13.97759530	     -1.47540415	     -7.49897943	     46.03688635	     -8.25917824	      1.36749385	     55.57602387	      0.96998460	      9.48401695	    -15.16338879	     -7.49897943	    -13.83517064	     -1.19647509	     -2.60454664	     23.06039138	    -34.11587087	     -6.70958493	    149.20506234	      6.68829512	     25.51903546	    -47.18054443	     11.71685258	    148.19567240	    113.95358572
      1.74000000	    -16.70450621	     -1.92469432	     -6.07880114	     -0.16468804	      0.90646059	     -0.59427377	     42.93085159	     -2.22520641	     -4.10711614	     46.77301186	      0.81634306	     10.05275597	     -0.42532678	     -7.49907830	     42.95624951	     -8.75417134	     -0.22190390	     50.74144972	      0.88560536	      6.06336035	    -14.04017937	     -7.49907830	    -12.42773366	     -1.03045340	     -3.41087408	     22.68309452	    -34.86616120	     -4.84516763	    149.26761990	      6.96839314	     18.20452384	    -48.23339094	      7.09890714	    149.07270247	    115.12982733
      1.75000000	    -16.47251297	     -1.78459081	     -6.41665906	     -0.15844824	      0.92686120	     -0.59409560	     39.79347946	     -2.17467067	     -4.35499444	     41.29666204	      0.72076272	      5.35704222	      0.81356691	     -7.49917536	     39.68371337	     -9.10084478	     -1.92855118	     45.36645276	      0.79179397	      1.84558167	    -12.80716606	     -7.49917536	    -11.10181652	     -0.95929818	     -4.05414837	     21.84104544	    -35.37956425	     -3.30850289	    149.31562669	      7.21100590	     10.81745407	    -48.37574014	      2.62935584	    149.40620735	    116.07108430
      1.76000000	    -16.23268462	     -1.59493708	     -6.65728666	     -0.15212262	      0.94811380	     -0.59402980	     36.48284797	     -2.19224377	     -4.62053139	     35.29973513	      0.61609660	     -0.44124723	      1.92424313	     -7.49925272	     36.21813987	     -9.23870633	     -3.76580578	     39.43162556	      0.68821170	     -3.45103234	    -11.45717361	     -7.49925272	     -9.94143604	     -0.94454528	     -4.85774494	     20.77383466	    -35.56400642	     -1.70082254	    149.33750505	      7.39852215	      3.19840924	    -47.64604054	     -1.81963237	    149.55768627	    116.64986945
